<?xml version='1.0' encoding='UTF-8'?>
<!DOCTYPE svg PUBLIC "-//W3C//DTD SVG 1.0//EN" "http://www.w3.org/TR/2001/REC-SVG-20010904/DTD/svg10.dtd">
<svg viewBox="0 0 608 732" xmlns="http://www.w3.org/2000/svg" xmlns:inkspace="http://www.inkscape.org/namespaces/inkscape" xmlns:xlink="http://www.w3.org/1999/xlink">
  <defs id="defs_block">
    <filter height="1.504" id="filter_blur" inkspace:collect="always" width="1.1575" x="-0.07875" y="-0.252">
      <feGaussianBlur id="feGaussianBlur3780" inkspace:collect="always" stdDeviation="4.2" />
    </filter>
  </defs>
  <title>blockdiag</title>
  <desc>nwdiag {
  network {
      switch1 [address="port54, VLAN=2, VLAN=3"];
      switch2 [address="port54, VLAN=2, VLAN=3"];
  }
  network {
      address = "VLAN=2"
      server1;
      switch1 [address = "port2, PVID=2"];
  }
  network {
      address = "VLAN=3"
      server1;
      switch1 [address = "port3, PVID=3"];
  }
  network {
      address = "VLAN=2"
      server2;
      switch2 [address = "port2, PVID=2"];
  }
  network {
      address = "VLAN=3"
      server2;
      switch2 [address = "port3, PVID=3"];
  }
}
</desc>
  <rect fill="rgb(0,0,0)" height="40" stroke="rgb(0,0,0)" style="filter:url(#filter_blur);opacity:0.7;fill-opacity:1" width="104" x="155" y="162" />
  <rect fill="rgb(0,0,0)" height="40" stroke="rgb(0,0,0)" style="filter:url(#filter_blur);opacity:0.7;fill-opacity:1" width="104" x="307" y="162" />
  <rect fill="rgb(0,0,0)" height="40" stroke="rgb(0,0,0)" style="filter:url(#filter_blur);opacity:0.7;fill-opacity:1" width="104" x="459" y="306" />
  <rect fill="rgb(0,0,0)" height="40" stroke="rgb(0,0,0)" style="filter:url(#filter_blur);opacity:0.7;fill-opacity:1" width="104" x="155" y="594" />
  <path d="M 131 103 L 435 103 A2,4 0 0 1 435 111 L 131 111 A2,4 0 0 1 131 103" fill="rgb(0,0,0)" style="filter:url(#filter_blur)" />
  <path d="M 131 247 L 587 247 A2,4 0 0 1 587 255 L 131 255 A2,4 0 0 1 131 247" fill="rgb(0,0,0)" style="filter:url(#filter_blur)" />
  <path d="M 131 391 L 587 391 A2,4 0 0 1 587 399 L 131 399 A2,4 0 0 1 131 391" fill="rgb(0,0,0)" style="filter:url(#filter_blur)" />
  <path d="M 131 535 L 435 535 A2,4 0 0 1 435 543 L 131 543 A2,4 0 0 1 131 535" fill="rgb(0,0,0)" style="filter:url(#filter_blur)" />
  <path d="M 131 679 L 435 679 A2,4 0 0 1 435 687 L 131 687 A2,4 0 0 1 131 679" fill="rgb(0,0,0)" style="filter:url(#filter_blur)" />
  <path d="M 128 100 L 432 100 A2,4 0 0 1 432 108 L 128 108 A2,4 0 0 1 128 100" fill="rgb(185,203,228)" stroke="rgb(0,0,0)" />
  <path d="M 432 108 A2,4 0 0 1 432 100" fill="none" stroke="rgb(0,0,0)" />
  <path d="M 128 100 L 432 100" fill="none" stroke="none" />
  <path d="M 280 35 L 280 100" fill="none" stroke="rgb(0,0,0)" />
  <path d="M 128 244 L 584 244 A2,4 0 0 1 584 252 L 128 252 A2,4 0 0 1 128 244" fill="rgb(185,203,228)" stroke="rgb(0,0,0)" />
  <path d="M 584 252 A2,4 0 0 1 584 244" fill="none" stroke="rgb(0,0,0)" />
  <path d="M 128 244 L 584 244" fill="none" stroke="none" />
  <path d="M 128 388 L 584 388 A2,4 0 0 1 584 396 L 128 396 A2,4 0 0 1 128 388" fill="rgb(185,203,228)" stroke="rgb(0,0,0)" />
  <path d="M 584 396 A2,4 0 0 1 584 388" fill="none" stroke="rgb(0,0,0)" />
  <path d="M 128 388 L 584 388" fill="none" stroke="none" />
  <path d="M 128 532 L 432 532 A2,4 0 0 1 432 540 L 128 540 A2,4 0 0 1 128 532" fill="rgb(185,203,228)" stroke="rgb(0,0,0)" />
  <path d="M 432 540 A2,4 0 0 1 432 532" fill="none" stroke="rgb(0,0,0)" />
  <path d="M 128 532 L 432 532" fill="none" stroke="none" />
  <path d="M 128 676 L 432 676 A2,4 0 0 1 432 684 L 128 684 A2,4 0 0 1 128 676" fill="rgb(185,203,228)" stroke="rgb(0,0,0)" />
  <path d="M 432 684 A2,4 0 0 1 432 676" fill="none" stroke="rgb(0,0,0)" />
  <path d="M 128 676 L 432 676" fill="none" stroke="none" />
  <text fill="rgb(0,0,0)" font-family="sans-serif" font-size="11" font-style="normal" font-weight="normal" text-anchor="middle" textLength="36" x="102.0" y="254">VLAN=2</text>
  <text fill="rgb(0,0,0)" font-family="sans-serif" font-size="11" font-style="normal" font-weight="normal" text-anchor="middle" textLength="36" x="102.0" y="398">VLAN=3</text>
  <text fill="rgb(0,0,0)" font-family="sans-serif" font-size="11" font-style="normal" font-weight="normal" text-anchor="middle" textLength="36" x="102.0" y="542">VLAN=2</text>
  <text fill="rgb(0,0,0)" font-family="sans-serif" font-size="11" font-style="normal" font-weight="normal" text-anchor="middle" textLength="36" x="102.0" y="686">VLAN=3</text>
  <path d="M 204 108 L 204 156" fill="none" stroke="rgb(0,0,0)" />
  <text fill="rgb(0,0,0)" font-family="sans-serif" font-size="11" font-style="normal" font-weight="normal" text-anchor="middle" textLength="36" x="234.0" y="123">port54</text>
  <text fill="rgb(0,0,0)" font-family="sans-serif" font-size="11" font-style="normal" font-weight="normal" text-anchor="middle" textLength="36" x="234.0" y="136">VLAN=2</text>
  <text fill="rgb(0,0,0)" font-family="sans-serif" font-size="11" font-style="normal" font-weight="normal" text-anchor="middle" textLength="36" x="234.0" y="149">VLAN=3</text>
  <path d="M 212 196 L 212 244" fill="none" stroke="rgb(0,0,0)" />
  <text fill="rgb(0,0,0)" font-family="sans-serif" font-size="11" font-style="normal" font-weight="normal" text-anchor="middle" textLength="30" x="239.0" y="217">port2</text>
  <text fill="rgb(0,0,0)" font-family="sans-serif" font-size="11" font-style="normal" font-weight="normal" text-anchor="middle" textLength="36" x="242.0" y="230">PVID=2</text>
  <path d="M 196 196 L 196 240" fill="none" stroke="rgb(0,0,0)" />
  <path d="M 196.0 240.0 A8.0,8.0 0 0 1 196.0 256.0" fill="none" stroke="rgb(0,0,0)" />
  <path d="M 196 256 L 196 388" fill="none" stroke="rgb(0,0,0)" />
  <text fill="rgb(0,0,0)" font-family="sans-serif" font-size="11" font-style="normal" font-weight="normal" text-anchor="middle" textLength="30" x="223.0" y="361">port3</text>
  <text fill="rgb(0,0,0)" font-family="sans-serif" font-size="11" font-style="normal" font-weight="normal" text-anchor="middle" textLength="36" x="226.0" y="374">PVID=3</text>
  <rect fill="rgb(255,255,255)" height="40" stroke="rgb(0,0,0)" width="104" x="152" y="156" />
  <text fill="rgb(0,0,0)" font-family="sans-serif" font-size="11" font-style="normal" font-weight="normal" text-anchor="middle" textLength="42" x="204.0" y="182">switch1</text>
  <path d="M 356 108 L 356 156" fill="none" stroke="rgb(0,0,0)" />
  <text fill="rgb(0,0,0)" font-family="sans-serif" font-size="11" font-style="normal" font-weight="normal" text-anchor="middle" textLength="36" x="386.0" y="123">port54</text>
  <text fill="rgb(0,0,0)" font-family="sans-serif" font-size="11" font-style="normal" font-weight="normal" text-anchor="middle" textLength="36" x="386.0" y="136">VLAN=2</text>
  <text fill="rgb(0,0,0)" font-family="sans-serif" font-size="11" font-style="normal" font-weight="normal" text-anchor="middle" textLength="36" x="386.0" y="149">VLAN=3</text>
  <path d="M 364 196 L 364 240" fill="none" stroke="rgb(0,0,0)" />
  <path d="M 364.0 240.0 A8.0,8.0 0 0 1 364.0 256.0" fill="none" stroke="rgb(0,0,0)" />
  <path d="M 364 256 L 364 384" fill="none" stroke="rgb(0,0,0)" />
  <path d="M 364.0 384.0 A8.0,8.0 0 0 1 364.0 400.0" fill="none" stroke="rgb(0,0,0)" />
  <path d="M 364 400 L 364 532" fill="none" stroke="rgb(0,0,0)" />
  <text fill="rgb(0,0,0)" font-family="sans-serif" font-size="11" font-style="normal" font-weight="normal" text-anchor="middle" textLength="30" x="391.0" y="505">port2</text>
  <text fill="rgb(0,0,0)" font-family="sans-serif" font-size="11" font-style="normal" font-weight="normal" text-anchor="middle" textLength="36" x="394.0" y="518">PVID=2</text>
  <path d="M 348 196 L 348 240" fill="none" stroke="rgb(0,0,0)" />
  <path d="M 348.0 240.0 A8.0,8.0 0 0 1 348.0 256.0" fill="none" stroke="rgb(0,0,0)" />
  <path d="M 348 256 L 348 384" fill="none" stroke="rgb(0,0,0)" />
  <path d="M 348.0 384.0 A8.0,8.0 0 0 1 348.0 400.0" fill="none" stroke="rgb(0,0,0)" />
  <path d="M 348 400 L 348 528" fill="none" stroke="rgb(0,0,0)" />
  <path d="M 348.0 528.0 A8.0,8.0 0 0 1 348.0 544.0" fill="none" stroke="rgb(0,0,0)" />
  <path d="M 348 544 L 348 676" fill="none" stroke="rgb(0,0,0)" />
  <text fill="rgb(0,0,0)" font-family="sans-serif" font-size="11" font-style="normal" font-weight="normal" text-anchor="middle" textLength="30" x="375.0" y="649">port3</text>
  <text fill="rgb(0,0,0)" font-family="sans-serif" font-size="11" font-style="normal" font-weight="normal" text-anchor="middle" textLength="36" x="378.0" y="662">PVID=3</text>
  <rect fill="rgb(255,255,255)" height="40" stroke="rgb(0,0,0)" width="104" x="304" y="156" />
  <text fill="rgb(0,0,0)" font-family="sans-serif" font-size="11" font-style="normal" font-weight="normal" text-anchor="middle" textLength="42" x="356.0" y="182">switch2</text>
  <path d="M 508 252 L 508 300" fill="none" stroke="rgb(0,0,0)" />
  <path d="M 508 340 L 508 388" fill="none" stroke="rgb(0,0,0)" />
  <rect fill="rgb(255,255,255)" height="40" stroke="rgb(0,0,0)" width="104" x="456" y="300" />
  <text fill="rgb(0,0,0)" font-family="sans-serif" font-size="11" font-style="normal" font-weight="normal" text-anchor="middle" textLength="42" x="508.0" y="326">server1</text>
  <path d="M 204 540 L 204 588" fill="none" stroke="rgb(0,0,0)" />
  <path d="M 204 628 L 204 676" fill="none" stroke="rgb(0,0,0)" />
  <rect fill="rgb(255,255,255)" height="40" stroke="rgb(0,0,0)" width="104" x="152" y="588" />
  <text fill="rgb(0,0,0)" font-family="sans-serif" font-size="11" font-style="normal" font-weight="normal" text-anchor="middle" textLength="42" x="204.0" y="614">server2</text>
</svg>
